<svg xmlns="http://www.w3.org/2000/svg" width="35.954" height="28.779" viewBox="0 0 35.954 28.779"><defs><style>.a{fill:#fdae27;}</style></defs><path class="a" d="M49.205,158.827a14.389,14.389,0,1,1,11.458-23.069l-5.247,3.086a8.441,8.441,0,0,0-6.211-2.739,8.352,8.352,0,1,0,0,16.7,8.654,8.654,0,0,0,6.211-2.739l5.247,3.086A14.417,14.417,0,0,1,49.205,158.827ZM70.77,143.2V140.85H68.417v-2.43h-2.43v2.43H63.595v-2.43h-2.43v2.43H58.811V143.2h2.353v2.43H58.811v2.353h2.353v2.43h2.43v-2.43h2.353v2.43h2.43v-2.43h2.353v-2.353H68.379V143.2Zm-4.745,2.469h-2.43v-2.43h2.43Z" transform="translate(-34.816 -130.048)"/></svg>