<svg xmlns="http://www.w3.org/2000/svg" xmlns:xlink="http://www.w3.org/1999/xlink" width="20.2" height="20.2" viewBox="0 0 20.2 20.2"><defs><style>.a{fill:#fafafa;stroke:#dcdcdc;stroke-width:0.2px;}.b{fill:url(#a);}</style><linearGradient id="a" x1="0.5" x2="0.5" y2="1" gradientUnits="objectBoundingBox"><stop offset="0" stop-color="#2d79e6"/><stop offset="1" stop-color="#093d87"/></linearGradient></defs><g transform="translate(-19.9 -413.9)"><g transform="translate(20 414)"><path class="a" d="M256,184a10,10,0,1,0-10-10A10,10,0,0,0,256,184Z" transform="translate(-246 -164)"/></g><g transform="translate(24.308 417.75)"><path class="b" d="M205.63,168.61l-.391,2.648,2.294,1.827,1.007-1.568-2.275-1.062Z" transform="translate(-205.239 -168.61)"/><path class="b" d="M566.858,250.615v1.066l-.839.878,1.249.243.354-.952Z" transform="translate(-559.527 -249.139)"/><path class="b" d="M273.843,339.521l-1.568,2.537-.783,6.508,2.446-3.261,4.306-2.727.56-2.069Z" transform="translate(-270.299 -336.446)"/><path class="b" d="M296.968,570.2l2.342-3.106,3.05-1.878,4.3,4.983Z" transform="translate(-295.317 -558.081)"/></g></g></svg>